<svg width="64" height="64" viewBox="0 0 64 64" fill="none" xmlns="http://www.w3.org/2000/svg">
  <path d="M46.9 48.5c-1 0-1.9-0.5-2.4-1.4L34 27.9c-0.2-0.5-0.7-0.8-1.2-0.8h-3.6c-0.5 0-1 0.3-1.2 0.8L19.5 47.1c-0.4 0.9-1.4 1.4-2.4 1.4h-7c-1.9 0-3.1-2.1-2.1-3.7l17-28.2c1.7-2.8 4.7-4.6 8.1-4.6h7.8c3.3 0 6.3 1.7 8.1 4.6l7.1 11.8c0.7 1.2 0.3 2.8-0.9 3.5-1.2 0.7-2.8 0.3-3.5-0.9l-7.1-11.8c-0.5-0.8-1.3-1.3-2.2-1.3H33c-0.9 0-1.7 0.5-2.2 1.3l-14.8 24.6h3.8L30 24.8c0.7-1.2 2-1.9 3.4-1.9h3.6c1.4 0 2.6 0.7 3.4 1.9l8.2 13.7 4.3-7.1c0.7-1.2 2.3-1.6 3.5-0.9s1.6 2.3 0.9 3.5l-7.6 12.6c-0.5 0.8-1.4 1.3-2.3 1.3h-0.5z" fill="#FF3E55"/>
</svg>
